# xmcd
#
# Track frame offsets: 
#        150
#        14625
#        45765
#        70660
#        84315
#        104600
#        119795
#        137107
#        148755
#        159115
#        177835
#        196825
#        222212
#        239420
#
# Disc length: 3487 seconds
#
# Revision: 6
# Processed by: cddbd v1.5.2PL0 Copyright (c) Steve Scherf et al.
# Submitted via: ExactAudioCopy v0.95b4
#
DISCID=c10d9d0e
DTITLE=Robert Palmer - Woke Up Laughing
DYEAR=1998
DGENRE=Blues
TTITLE0=Housework
TTITLE1=Charanga (Alternate Version)
TTITLE2=Woke Up Laughing (New Version)
TTITLE3=Aeroplane (Remix)
TTITLE4=History
TTITLE5=Whats It Take
TTITLE6=Pride
TTITLE7=Chance
TTITLE8=Honeymoon
TTITLE9=Best of Both Worlds (Remix)
TTITLE10=Monogamy (New Version)
TTITLE11=Honey Bee
TTITLE12=Casting a Spell (Remix)
TTITLE13=Between Us (Remix w. Alternate Vocal
EXTD=1998, Metro Blue
EXTT0=\n\t
EXTT1=
EXTT2=
EXTT3=
EXTT4=
EXTT5=
EXTT6=
EXTT7=
EXTT8=
EXTT9=
EXTT10=
EXTT11=
EXTT12=
EXTT13=
PLAYORDER=
